<?xml version="1.0" encoding="UTF-8" standalone="no"?>
<!-- Created with Inkscape (http://www.inkscape.org/) -->

<svg
   xmlns:dc="http://purl.org/dc/elements/1.1/"
   xmlns:cc="http://creativecommons.org/ns#"
   xmlns:rdf="http://www.w3.org/1999/02/22-rdf-syntax-ns#"
   xmlns:svg="http://www.w3.org/2000/svg"
   xmlns="http://www.w3.org/2000/svg"
   xmlns:sodipodi="http://sodipodi.sourceforge.net/DTD/sodipodi-0.dtd"
   xmlns:inkscape="http://www.inkscape.org/namespaces/inkscape"
   width="2986.6667"
   height="2986.6667"
   id="svg3847"
   version="1.1"
   inkscape:version="0.92.1 unknown"
   sodipodi:docname="Lion.svg">
  <defs
     id="defs3849" />
  <sodipodi:namedview
     id="base"
     pagecolor="#ffffff"
     bordercolor="#666666"
     borderopacity="1.0"
     inkscape:pageopacity="0.0"
     inkscape:pageshadow="2"
     inkscape:zoom="0.083407252"
     inkscape:cx="-139.25122"
     inkscape:cy="1063.971"
     inkscape:document-units="px"
     inkscape:current-layer="layer1"
     showgrid="false"
     inkscape:window-width="1327"
     inkscape:window-height="747"
     inkscape:window-x="39"
     inkscape:window-y="21"
     inkscape:window-maximized="1" />
  <metadata
     id="metadata3852">
    <rdf:RDF>
      <cc:Work
         rdf:about="">
        <dc:format>image/svg+xml</dc:format>
        <dc:type
           rdf:resource="http://purl.org/dc/dcmitype/StillImage" />
        <dc:title />
      </cc:Work>
    </rdf:RDF>
  </metadata>
  <g
     inkscape:label="Bg"
     inkscape:groupmode="layer"
     id="layer1"
     transform="translate(0,1864.147)"
     style="display:inline">
    <rect
       style="fill:#008080;fill-opacity:1;stroke:none;stroke-width:1.06666672"
       id="rect3870"
       width="2981.3333"
       height="2981.3333"
       x="2.6666667"
       y="-1861.4803" />
  </g>
  <g
     inkscape:groupmode="layer"
     id="layer3"
     inkscape:label="Singa"
     style="display:inline">
    <path
       inkscape:connector-curvature="0"
       id="path3826"
       d="m 1432.0333,364.5 c -60.7437,14.81918 -111.2538,54.59666 -155.7021,97.0061 -20.4927,18.47432 -38.2086,40.78658 -57.2978,59.82723 -36.934,-28.58099 -80.9233,-47.13734 -126.6001,-56.43333 -17.4736,1.78342 -28.3579,18.49069 -33.9,33.7 -10.7461,22.47396 -16.46,47.02811 -22.2,71 -44.2687,-7.8225 -89.37503,1.21663 -132.46663,11.26667 -10.1882,5.1671 -8.4829,18.53904 -6.23334,27.73333 2.55624,17.49057 8.11289,34.35171 14.26667,50.86667 C 825.02775,674.11716 745.86014,715.35229 670.85476,759.61919 627.00273,785.70018 585.15814,815.02274 544.8,846.2 c 17.53198,59.88845 36.82886,120.49356 70.2,173.4 -43.36714,24.8341 -79.12748,62.7707 -100.6,107.8 -3.52925,18.9846 11.78781,35.8657 28.33333,42.5667 11.14276,6.4658 23.17487,11.3463 35.43334,15.3999 -24.81079,22.0016 -46.42218,49.3778 -55.56667,81.6668 -1.02738,22.1361 16.11657,39.3206 33.11231,50.7042 12.01931,8.2901 25.55883,13.983 39.38769,18.5957 -41.2671,70.7809 -54.22795,154.3829 -54.57219,235.4667 -0.52634,66.2566 5.68179,132.9021 22.80552,196.9667 9.22458,16.7099 30.77406,19.9722 48.09873,17.148 28.6911,-1.4946 56.94587,-7.1383 85.00127,-13.1814 36.16608,93.557 102.83791,172.1686 177.73521,237.5145 20.42772,17.9741 42.19654,34.3657 64.26479,50.2523 31.14093,-24.909 61.51545,-50.7397 91.03337,-77.5001 55.5579,45.369 119.761,78.3363 181.9667,113.4 3.4248,0.9571 6.9542,4.3347 4.4,7.9667 -12.2803,123.1606 -6.3111,249.7419 30.9666,368.2667 13.7536,24.1453 42.535,34.0427 68.7333,37.6333 32.0162,4.5002 68.4937,0.094 92.1668,-23.8334 15.1309,-17.7974 13.064,-43.2634 10.7267,-65.0954 -1.6156,-23.4437 -4.3837,-46.7866 -6.6602,-70.1712 86.2548,6.2913 172.7983,11.1377 259.3001,7.9 5.9445,39.3031 5.7248,79.5444 13.1667,118.6334 14.6181,27.0729 46.7654,39.3159 76.2982,39.6604 32.3239,1.9723 68.1594,-4.9752 90.7685,-29.7272 16.6876,-25.7849 13.7266,-58.0541 18.4301,-87.1937 1.2629,-17.2216 0.4702,-34.5331 2.0031,-51.7397 17.5771,-1.6017 35.0111,-5.2768 51.8,-10.6999 6.068,21.4741 16.4204,45.1453 38.2667,54.2667 38.8496,13.8955 87.7462,5.8859 114.3001,-27.1334 14.2452,-20.236 10.648,-46.5879 13.3885,-70.0298 4.8501,-78.6279 0.2671,-158.7934 -22.8886,-234.3702 22.4535,13.8107 44.151,31.0347 70.6621,36.2488 43.0896,11.8564 91.4149,7.2712 129.9712,-15.7488 32.1572,25.1656 86.9687,14.1658 104.5,-23.3999 14.4219,-31.2639 4.8556,-69.6135 25.3001,-98.6334 17.0918,-21.9705 46.6272,-27.2111 70.6667,-38.5666 17.727,-7.5118 34.6546,-16.8446 51.6999,-25.8334 -66.589,-7.7166 -134.3815,-23.1842 -201.4,-10.4333 -44.7765,6.7833 -88.4463,32.8208 -108.1666,74.5999 -9.7149,17.6945 -11.3018,40.1984 -1.6334,58.2667 -23.7166,8.4453 -51.1232,3.5061 -71.3939,-11.0606 -36.701,-20.6865 -72.9575,-47.2036 -116.3728,-50.4394 20.4998,-21.3393 39.0498,-44.539 55.7667,-69 14.6347,21.6341 31.7787,41.4965 51.0667,59 26.4433,-25.9201 45.7516,-58.563 58.1333,-93.3666 26.7442,17.7261 54.3717,36.3028 86,43.3666 10.2996,-1.8074 11.6261,-13.9761 13.8667,-22.2 16.3128,-65.9906 22.2744,-134.091 25.2247,-201.8986 3.6541,-114.3567 -9.4564,-229.1851 -38.8914,-339.7014 26.7115,6.7293 54.1012,10.6055 81.4,14.3666 5.803,-47.5172 -3.777,-96.1938 -24.7666,-138.8999 25.3237,-0.2348 50.6113,-1.8535 75.9332,-2.2 -25.6657,-59.3329 -67.1817,-111.2973 -118.1999,-150.8 47.6922,-30.0583 89.7,-71.1813 115.8333,-121.56667 2.8433,-14.21371 -10.2395,-24.12134 -17.8261,-34.17772 -60.2586,-71.31956 -142.382,-119.89445 -225.5281,-160.21686 -38.0865,-18.48157 -77.2549,-34.70288 -117.2125,-48.73875 -1.0127,-29.30693 -9.3522,-57.62821 -17.7334,-85.53333 -43.9946,-17.30235 -92.072,-19.26277 -138.8665,-18.93334 9.7735,-29.519 12.4654,-61.72951 5.5666,-92.2 -83.5223,1.13672 -167.1972,7.85755 -248.9333,25.53334 -49.9003,-69.42856 -120.3803,-124.67749 -201.2,-153.3 -2.6395,-0.55613 -5.3273,-0.93877 -8.0334,-0.76667 z"
       style="fill:#003c3c;fill-opacity:1;stroke:none;stroke-width:1.06666672" />
    <path
       style="fill:#003c3c;fill-opacity:1;stroke:none;stroke-width:1.06666672"
       d="m 1389.3666,364.5 c -60.7437,14.81918 -111.2537,54.59666 -155.7021,97.0061 -20.4927,18.47432 -38.2086,40.78658 -57.2978,59.82723 -36.934,-28.58099 -80.9233,-47.13734 -126.6,-56.43333 -17.4737,1.78342 -28.358,18.49069 -33.9,33.7 -10.7462,22.47396 -16.46011,47.02811 -22.20003,71 -44.26874,-7.8225 -89.37506,1.21663 -132.46667,11.26667 -10.18819,5.1671 -8.4829,18.53904 -6.23333,27.73333 2.55623,17.49057 8.11288,34.35171 14.26666,50.86667 -86.87224,14.65049 -166.03986,55.88562 -241.04523,100.15252 -43.85204,26.08099 -85.69662,55.40355 -126.05477,86.58081 17.53198,59.88845 36.82887,120.49356 70.2,173.4 -43.36713,24.8341 -79.12747,62.7707 -100.6,107.8 -3.52924,18.9846 11.78781,35.8657 28.33334,42.5667 11.14275,6.4658 23.17487,11.3463 35.43333,15.3999 -24.81078,22.0016 -46.42218,49.3778 -55.56667,81.6668 -1.02738,22.1361 16.11657,39.3206 33.11231,50.7042 12.01931,8.2901 25.55883,13.983 39.38769,18.5957 -41.2671,70.7809 -54.22794,154.3829 -54.57219,235.4667 -0.52633,66.2566 5.68179,132.9021 22.80553,196.9667 9.22457,16.7099 30.77406,19.9722 48.09873,17.148 28.69109,-1.4946 56.94586,-7.1383 85.00127,-13.1814 36.16608,93.557 102.83791,172.1686 177.73521,237.5145 20.42771,17.9741 42.19653,34.3657 64.26479,50.2523 31.14092,-24.909 61.51544,-50.7397 91.03333,-77.5001 55.5579,45.369 119.7611,78.3363 181.9667,113.4 3.4249,0.9571 6.9543,4.3347 4.4,7.9667 -12.2803,123.1606 -6.311,249.7419 30.9666,368.2667 13.7536,24.1453 42.5351,34.0427 68.7334,37.6333 32.0162,4.5002 68.4936,0.094 92.1667,-23.8334 15.131,-17.7974 13.064,-43.2634 10.7267,-65.0954 -1.6156,-23.4437 -4.3837,-46.7866 -6.6602,-70.1712 86.2549,6.2913 172.7983,11.1377 259.3001,7.9 5.9445,39.3031 5.7248,79.5444 13.1667,118.6334 14.6182,27.0729 46.7655,39.3159 76.2983,39.6604 32.3238,1.9723 68.1593,-4.9752 90.7684,-29.7272 16.6877,-25.7849 13.7266,-58.0541 18.4302,-87.1937 1.2628,-17.2216 0.4702,-34.5331 2.0031,-51.7397 17.577,-1.6017 35.0111,-5.2768 51.8,-10.6999 6.0679,21.4741 16.4203,45.1453 38.2666,54.2667 38.8496,13.8955 87.7463,5.8859 114.3001,-27.1334 14.2452,-20.236 10.648,-46.5879 13.3886,-70.0298 4.85,-78.6279 0.2671,-158.7934 -22.8887,-234.3702 22.4536,13.8107 44.1511,31.0347 70.6621,36.2488 43.0896,11.8564 91.4149,7.2712 129.9712,-15.7488 32.1572,25.1656 86.9688,14.1658 104.5001,-23.3999 14.4218,-31.2639 4.8555,-69.6135 25.3,-98.6334 17.0919,-21.9705 46.6272,-27.2111 70.6667,-38.5666 17.727,-7.5118 34.6546,-16.8446 51.6999,-25.8334 -66.589,-7.7166 -134.3815,-23.1842 -201.4,-10.4333 -44.7765,6.7833 -88.4463,32.8208 -108.1666,74.5999 -9.7149,17.6945 -11.3017,40.1984 -1.6334,58.2667 -23.7166,8.4453 -51.1232,3.5061 -71.3939,-11.0606 -36.701,-20.6865 -72.9574,-47.2036 -116.3728,-50.4394 20.4999,-21.3393 39.0498,-44.539 55.7667,-69 14.6347,21.6341 31.7787,41.4965 51.0667,59 26.4433,-25.9201 45.7517,-58.563 58.1333,-93.3666 26.7442,17.7261 54.3718,36.3028 86,43.3666 10.2997,-1.8074 11.6262,-13.9761 13.8667,-22.2 16.3129,-65.9906 22.2745,-134.091 25.2247,-201.8986 3.6541,-114.3567 -9.4564,-229.1851 -38.8914,-339.7014 26.7115,6.7293 54.1013,10.6055 81.4,14.3666 5.803,-47.5172 -3.7769,-96.1938 -24.7666,-138.8999 25.3238,-0.2348 50.6113,-1.8535 75.9332,-2.2 -25.6657,-59.3329 -67.1817,-111.2973 -118.1998,-150.8 47.6921,-30.0583 89.6999,-71.1813 115.8332,-121.56667 2.8433,-14.21371 -10.2394,-24.12134 -17.8261,-34.17772 -60.2586,-71.31956 -142.382,-119.89445 -225.5281,-160.21686 -38.0865,-18.48157 -77.2548,-34.70288 -117.2125,-48.73875 -1.0127,-29.30693 -9.3522,-57.62821 -17.7333,-85.53333 -43.9947,-17.30235 -92.072,-19.26277 -138.8666,-18.93334 9.7736,-29.519 12.4654,-61.72951 5.5666,-92.2 -83.5223,1.13672 -167.1972,7.85755 -248.9333,25.53334 -49.9003,-69.42856 -120.3803,-124.67749 -201.2,-153.3 -2.6395,-0.55613 -5.3273,-0.93877 -8.0334,-0.76667 z"
       id="path3814"
       inkscape:connector-curvature="0" />
    <path
       style="fill:#ffffff;fill-opacity:1;stroke:none;stroke-width:1.06666672"
       d="m 1389.8667,375.13333 c -62.4317,16.3857 -113.4356,59.31345 -158.5772,103.5566 -18.6237,18.35305 -36.019,38.196 -52.9896,57.97674 -36.132,-31.08222 -81.2656,-50.11963 -127.3666,-61.13334 -13.679,1.20263 -20.16,15.52715 -24.9177,26.59993 -12.1651,25.30448 -18.0992,52.95182 -24.0156,80.23341 -40.4835,-10.71722 -82.86933,-2.46463 -123.2,5 -4.42306,2.11803 -13.34036,0.96167 -14.76667,5.3 1.28194,26.17529 10.2994,51.16303 20,75.26666 -86.07096,11.45383 -164.8124,51.42384 -239.21591,94.04671 -45.34347,26.64293 -88.7176,56.1702 -130.35075,88.21996 17.80553,60.23167 37.50421,121.19091 73.46666,173.2333 -45.50011,22.5094 -82.48156,60.9376 -105.7,105.8668 -2.74563,14.0021 9.8183,25.2008 21.3,30.4 16.70465,9.938 35.4333,16.074 54.2,21.1666 -29.311,22.3403 -55.27062,51.1123 -67.13333,86.4999 -1.12431,18.3876 14.47337,31.3813 27.93333,41.1667 15.02421,10.6255 32.67056,16.3324 50.06667,21.7666 -42.62598,65.9918 -57.42289,145.8274 -59.76064,223.3982 -2.06751,70.4544 4.01772,141.5262 21.12731,209.8352 6.79961,12.6215 23.19929,13.3954 35.83333,11.8 32.03223,-1.267 63.42358,-8.2783 94.7,-14.9333 34.41187,95.1185 101.39174,174.4757 176.5,240.5333 18.67285,16.4751 38.26005,31.5611 58.43333,46.1001 31.23236,-25.085 61.57172,-51.2127 91.13334,-78.2001 46.88553,41.0033 102.80863,69.7159 156.09953,101.4336 14.0812,7.8406 28.2845,15.4371 42.5005,23.0332 -14.0533,124.86 -8.6133,253.4131 28.1666,374 11.7815,21.0024 36.872,28.2823 59.0503,32.1529 27.6553,3.944 58.7729,1.6394 81.1954,-16.4817 11.4085,-10.8663 14.9792,-27.6384 12.4204,-42.8369 -1.0388,-33.6761 -5.9621,-67.0569 -8.7327,-100.6011 93.1639,7.0892 186.6866,12.5559 280.1333,8.5334 6.9979,41.1324 7.6208,83.2405 13.5001,124.4666 12.2646,23.3376 40.1884,33.1013 65.2646,34.0316 29.4063,1.8497 62.1895,-2.8737 83.5686,-24.8648 13.8197,-20.339 11.2326,-46.314 15.5829,-69.4937 2.3563,-24.429 2.1529,-48.9995 2.9172,-73.5065 23.9935,-0.9993 47.7644,-6.1874 70.1666,-14.6666 4.5939,20.6796 11.8381,42.6343 29.0334,56.1333 31.3253,13.0429 70.3346,10.2148 97.4333,-10.9333 12.0686,-9.4634 19.0692,-24.359 18.5682,-39.581 8.5534,-92.9711 6.7139,-188.9215 -23.8349,-277.9856 0.2543,-2.6866 -6.173,-11.4562 -2.3667,-10.7001 28.4944,8.7751 48.9959,33.8472 77.9025,41.7979 45.6845,16.3341 99.9924,13.0504 140.2976,-15.0312 26.4455,27.4727 80.0962,19.2945 94.9999,-16.5 11.5465,-30.4487 4.5286,-66.0263 22.6334,-94.3 10.239,-17.531 29.1582,-26.4068 47.2283,-33.7716 17.313,-7.0844 34.9824,-13.4724 51.6049,-22.1951 -58.9676,-7.9042 -120.14,-18.2544 -178.7666,-2.9333 -39.9847,9.1648 -77.8984,36.6594 -90.7,76.7667 -6.3934,15.8318 -1.6603,34.3876 9.0666,46.9666 -25.4321,13.5507 -58.1675,14.3565 -83.0505,-1.1505 -37.9484,-19.4559 -72.816,-48.4902 -116.4161,-53.6495 -4.1947,-1.4748 -11.7481,1.761 -12.8,-4.3666 -1.0056,-3.3695 -7.4372,-7.3372 -2.6667,-10.2667 24.8665,-26.3378 47.859,-54.6002 67.1335,-85.2666 13.9806,23.2881 30.9848,44.7649 50.4999,63.6332 25.1386,-26.7636 42.0836,-60.2044 52.8999,-95.0999 24.7939,17.3483 50.5819,34.2796 78.6334,45.5667 2.8378,0.1214 9.9159,5.0073 12.289,3.9025 3.7505,-10.6462 4.7025,-17.289 8.1443,-28.3359 35.1453,-178.3472 27.2119,-365.1755 -22.4999,-540.0666 28.3744,8.5966 57.5766,13.5551 87,17.4999 3.7034,-47.9351 -9.158,-96.2148 -32.9334,-137.6 25.7361,0.8073 51.4479,-1.0076 77.1668,-1.6333 -27.233,-56.5366 -69.7911,-105.1355 -120.8668,-141.4666 51.247,-28.8066 95.3399,-70.94683 124.5333,-122.13337 2.2507,-9.51346 -7.9286,-14.60991 -11.959,-21.74436 -59.9741,-72.96511 -143.2146,-121.51047 -227.0551,-162.41548 -39.4975,-18.91002 -80.1009,-35.52867 -121.4858,-49.94016 0.1527,-29.04104 -7.6863,-57.32197 -15.9001,-84.9 -46.4397,-17.0979 -96.7531,-16.67096 -145.6,-16.4 12.0775,-28.83984 17.4002,-61.03031 12.1333,-92.06666 -82.1642,1.52903 -164.5512,8.55176 -244.7666,26.7 -15.3009,-23.49256 -34.4809,-44.52187 -54.4999,-64.13334 -40.9287,-39.11465 -89.4666,-70.88788 -142.7001,-90.53333 -2.2308,-0.56511 -4.5463,-0.94501 -6.8666,-0.76667 z"
       id="path3787"
       inkscape:connector-curvature="0"
       sodipodi:nodetypes="ccccccccccccccccccccccccccccccccccccccccccccccccccccccccccccccccccccccccccccccc" />
    <path
       style="fill:#ffeeaa;fill-opacity:1;stroke:none;stroke-width:1.06666672"
       d="m 1466.6999,2135.3001 c -7.135,0.028 -14.5035,0.3276 -22.1333,0.8999 -100.7943,7.5596 -112.6536,96.1506 -108.0333,182.3333 61.0031,5.311 207.4247,16.2363 316.8667,9.7666 -23.5763,-128.0137 -75.6996,-193.4281 -186.7001,-192.9998 z"
       id="path5959"
       inkscape:connector-curvature="0" />
    <path
       style="fill:#a05a2c;fill-opacity:1;stroke:none;stroke-width:1.06666672"
       d="m 2327.6667,1909.4334 c -71.8165,0.6116 -117.8447,22.859 -137.2667,70.1999 -7.1933,23.0186 10.7746,38.8227 26.6,41.7 -38.1246,28.7734 -79.8361,43.8786 -133.0667,13.6667 -39.9974,-22.7012 -76.7628,-51.9102 -124.3,-49.7667 6.4969,12.2538 12.3089,24.4117 17.5334,36.4668 17.8984,-5.0816 42.5857,-2.7327 75.1,21.9332 41.7211,31.6505 120.8534,48.9306 178.4,-4.3 11.5093,35.9666 56.1187,28.7693 69.0666,10.0667 18.4025,-26.5814 -5.7492,-106.4493 70.5001,-138.0999 -15.0611,-1.3488 -29.2674,-1.98 -42.5667,-1.8667 z"
       id="path5957"
       inkscape:connector-curvature="0" />
    <path
       style="fill:#ffe680;fill-opacity:1;stroke:none;stroke-width:1.06666672"
       d="m 1940.3333,1951.7666 c -51.7489,51.6482 -128.1385,110.3061 -236.9667,157.3001 -66.1784,-48.9146 -123.6999,-109.3334 -123.6999,-109.3334 0,0 -189.9228,109.3601 -264.7334,138.1334 -37.3834,-17.9995 -74.2454,-36.683 -109.0666,-55.1334 -8.6112,63.9813 -21.9616,221.2391 25.0666,378 28.7909,31.6082 116.7495,26.097 115.9668,-5.3667 4.0691,-83.4176 -65.0997,-306.9591 97.6665,-319.1666 162.7662,-12.2075 211.1592,99.7271 223.3667,327.6 17.3537,36.9415 119.1766,27.7163 121.0667,-4.0667 12.2075,-52.899 9.5666,-140.4 9.5666,-140.4 0,0 47.7012,5.5013 104.1333,-22.2 8.8365,57.4407 24.6667,67 24.6667,67 0,0 58.6759,19.205 85.7001,-21.7333 10.444,-121.8475 15.2715,-249.3228 -72.7334,-390.6334 z"
       id="path5955"
       inkscape:connector-curvature="0" />
    <path
       style="fill:#a05a2c;stroke:none;stroke-width:1.06666672px;stroke-linecap:butt;stroke-linejoin:miter;stroke-opacity:1"
       d="m 1180.0554,565.51852 c 0,0 108.9876,-145.4286 212.5715,-171.32456 117.9704,46.03725 184.149,140.98908 192.7809,158.25305 126.6024,-28.77328 189.9037,-25.89595 235.941,-28.77328 2.8772,46.03726 -25.896,92.0745 -25.896,92.0745 0,0 115.0931,-5.75465 161.1303,11.50932 17.264,57.54656 11.5094,83.44251 11.5094,83.44251 0,0 256.0822,80.56519 359.666,218.67694 -43.1599,71.9332 -123.7251,117.9705 -143.8664,120.8478 89.1972,51.7919 129.4797,126.6024 129.4797,126.6024 0,0 -54.6692,2.8773 -80.5651,-2.8773 25.8959,48.9146 46.0372,71.9332 48.9146,138.1118 -57.5466,-8.632 -97.8292,-25.896 -97.8292,-25.896 0,0 97.8292,258.9595 31.6506,575.4657 -86.3199,-48.9146 -89.1972,-60.4239 -89.1972,-60.4239 0,0 -11.5092,60.4239 -43.1599,100.7064 -31.6506,-34.5279 -48.9146,-74.8105 -48.9146,-74.8105 0,0 -77.6879,172.6397 -330.8928,281.9782 -66.1784,-48.9146 -123.725,-109.3385 -123.725,-109.3385 0,0 -189.9037,109.3385 -264.7142,138.1117 -155.3757,-74.8105 -302.1195,-161.1303 -328.01543,-195.6583 -48.91458,46.0373 -92.0745,80.5652 -92.0745,80.5652 0,0 -172.63969,-120.8478 -221.55428,-284.8555 -112.21579,25.8959 -126.60243,17.264 -126.60243,17.264 0,0 -69.05588,-287.7329 54.66923,-437.3539 -83.44252,-14.3866 -92.20837,-47.3165 -92.20837,-47.3165 0,0 17.39784,-54.8287 96.52437,-97.9885 -93.51317,-18.7027 -105.02249,-38.844 -105.02249,-38.844 0,0 43.15993,-79.1265 117.97046,-102.1451 -48.91457,-51.79195 -82.00385,-174.0784 -82.00385,-174.0784 0,0 215.79961,-168.3237 375.49132,-172.63969 -25.89594,-57.54656 -27.33461,-79.12653 -27.33461,-79.12653 0,0 97.82916,-23.01863 132.35708,4.316 11.5093,-83.44252 34.528,-115.09313 34.528,-115.09313 0,0 87.7003,21.78819 128.3919,70.61807 z"
       id="path5953"
       inkscape:connector-curvature="0" />
    <path
       style="fill:#7d4623;fill-opacity:1;stroke:none;stroke-width:1.06666672"
       d="m 828.15806,1600.9369 c 0,0 38.26472,117.5273 98.39502,169.458 60.13028,51.9308 155.79212,122.9938 155.79212,122.9938 l -35.5315,-71.063 290.5761,188.2823 225.9977,-147.2844 161.2585,142.1261 c 0,0 150.3257,-87.4623 245.9875,-295.1851 40.998,51.9307 103.8614,90.1955 103.8614,90.1955 l 8.1996,-133.9266 87.4622,46.4644 c 0,0 92.9287,-278.786 -57.397,-461.91 87.4622,16.3991 117.5273,16.3991 117.5273,16.3991 0,0 -24.5987,-109.3277 -144.8593,-158.5252 117.5274,43.7311 142.1261,32.7983 142.1261,32.7983 0,0 -49.1974,-84.729 -147.5925,-112.061 95.6618,-27.3319 139.3929,-92.92861 139.3929,-92.92861 0,0 -240.5211,-183.12407 -437.3111,-177.65768 128.4602,-68.32987 128.4602,-76.52946 128.4602,-76.52946 0,0 -131.1934,2.73319 -240.5212,38.26474 21.8656,-54.66391 90.1954,-128.46016 90.1954,-128.46016 l -232.3215,95.66181 -109.3278,-185.85725 -51.9308,174.92447 -103.8614,-57.39709 19.1324,71.06307 -144.8593,-95.66182 27.3319,147.59252 c 0,0 -174.92445,-79.26265 -161.2585,-62.86349 13.666,16.39918 65.5968,120.26058 65.5968,120.26058 0,0 -158.52539,-19.13236 -336.18307,46.46432 106.59461,27.33195 136.65975,51.9307 136.65975,51.9307 l -191.32364,27.33196 92.92863,46.46431 c 0,0 -120.26058,81.99588 -142.12614,114.79418 90.19543,2.7332 98.39502,13.6659 98.39502,13.6659 0,0 -101.12822,106.5947 -112.061,136.6599 114.79419,-24.5989 139.39294,-24.5989 139.39294,-24.5989 0,0 -95.66181,185.8573 -98.39501,368.9814 98.39501,-2.7332 172.19128,19.1324 172.19128,19.1324 z"
       id="path3828"
       inkscape:connector-curvature="0"
       sodipodi:nodetypes="csccccccccccccccccccccccccccsccccccccccc" />
    <path
       style="fill:#ffe680;stroke:none;stroke-width:1.06666672"
       d="m 971.09827,953.83429 c 0,0 -140.98909,-56.10789 -188.465,46.03725 -47.47592,102.14516 51.7919,155.37576 70.49454,165.44636 -17.26397,43.16 -87.75851,244.5729 -50.35324,379.8073 37.40526,135.2345 261.83683,276.2236 650.27623,253.2049 388.4392,-23.0186 535.183,-184.149 546.6923,-379.8073 11.5093,-195.6583 -77.6878,-316.5061 -77.6878,-316.5061 0,0 155.2491,-74.6489 84.0389,-186.55073 -71.2103,-111.9018 -211.5962,-32.55324 -229.9073,-22.38035 -59.4966,-99.92363 -489.3115,-356.91773 -805.08863,60.74867 z"
       id="path5951"
       inkscape:connector-curvature="0"
       sodipodi:nodetypes="cscssscscc" />
    <path
       style="fill:#000000;stroke:none;stroke-width:1.06666672"
       d="m 1626.7099,1131.6957 c 0,0 47.624,-5.0249 85.641,21.6469 0.4982,-34.2301 -5.9417,-55.8929 -36.6372,-63.8993 -18.4078,-4.8013 -42.068,3.0385 -49.0038,42.2524 z"
       id="path5915"
       inkscape:connector-curvature="0"
       sodipodi:nodetypes="ccsc" />
    <path
       style="fill:#ffeeaa;fill-opacity:1;stroke:none;stroke-width:1.06666672px;stroke-linecap:butt;stroke-linejoin:miter;stroke-opacity:1"
       d="m 1404.1333,1109.6 c -58.9852,-0.045 -115.0747,4.654 -166.8666,12.5666 -279.10083,57.5467 -417.23337,212.9001 -417.23337,212.9001 -6.36747,3.3353 -12.15639,6.9127 -17.43333,10.6999 -11.7962,66.4225 -16.41954,139.4012 0.16667,199.3667 37.40526,135.2345 261.86063,276.2187 650.30003,253.2 388.4392,-23.0186 535.1573,-184.1416 546.6666,-379.8 2.7857,-47.3578 -0.3121,-90.3272 -6.6334,-128.2666 -6.1169,-4.2053 -12.5264,-8.4442 -19.2665,-12.7334 C 1783.9297,1152.3695 1581.0891,1109.7348 1404.1333,1109.6 Z"
       id="path5963"
       inkscape:connector-curvature="0" />
    <path
       style="fill:#000000;stroke:none;stroke-width:1.06666672"
       d="m 1029.3642,1197.6878 c 0,0 30.2119,-24.4573 71.2138,-38.8439 -18.7026,-24.4572 -38.1246,-25.1766 -53.9499,-16.5446 -15.8253,8.6319 -23.7379,28.0539 -17.2639,55.3885 z"
       id="path5931"
       inkscape:connector-curvature="0" />
    <path
       style="fill:#c87137;fill-opacity:1;stroke:none;stroke-width:1.06666672"
       d="m 1320.4413,1575.6866 c 0,0 131.2303,23.3977 217.6999,-74.2621 -15.8341,-12.2736 -19.1328,-14.2932 -19.1328,-14.2932 0,0 -10.0958,-10.4131 2.3942,-14.1186 13.837,-4.1051 36.0671,22.308 41.1536,26.3773 5.0864,4.0691 17.8025,21.3631 13.2247,31.5359 -3.4424,7.6499 -14.7251,6.5145 -23.8807,-13.8312 -33.5706,27.4668 -101.6161,94.0736 -224.7082,76.7798 -13.9764,-2.6878 -18.0976,-6.8187 -18.0207,-10.9846 0.068,-3.7177 3.1146,-7.683 11.27,-7.2033 z"
       id="path5925"
       inkscape:connector-curvature="0"
       sodipodi:nodetypes="cccsssccsc" />
    <path
       style="fill:#c87137;fill-opacity:1;stroke:none;stroke-width:1.06666672"
       d="m 1343.7123,1286.1657 c 0,0 17.2639,210.0449 51.7919,296.3648 11.5092,0 11.5092,0 11.5092,0 0,0 -37.4052,-208.6063 -23.0185,-304.9968 -31.6506,-46.0373 -40.2826,8.632 -40.2826,8.632 z"
       id="path5933"
       inkscape:connector-curvature="0"
       sodipodi:nodetypes="ccccc" />
    <path
       style="fill:#ffd42a;stroke:none;stroke-width:1.06666672"
       d="m 950.85473,983.54473 c 0,0 -62.75396,105.48017 -78.77627,152.21187 -57.4132,-28.0391 -97.84725,-57.2208 -69.42992,-126.8433 26.70382,-65.42431 148.20619,-25.36857 148.20619,-25.36857 z"
       id="path5941"
       inkscape:connector-curvature="0"
       sodipodi:nodetypes="ccsc" />
    <path
       style="fill:#fedb50;fill-opacity:1;stroke:none;stroke-width:1.06666672px;stroke-linecap:butt;stroke-linejoin:miter;stroke-opacity:1"
       d="m 1584.8333,760.66667 c 48.953,41.71459 126.7048,117.27274 164.4,203.43333 57.3971,131.1933 60.1285,188.5999 -35.5332,188.5999 -84.729,13.666 -133.8979,54.6717 -90.1668,153.0667 43.7311,98.3951 139.3883,273.3036 -92.9333,344.3667 -232.3215,71.0631 -442.8042,32.796 -524.8,-46.4666 -71.69685,-69.307 -168.43878,-69.6537 -177,-2.8667 76.26193,115.2257 289.2631,217.3854 624.2667,197.5333 388.4392,-23.0186 535.1573,-184.1416 546.6666,-379.8 11.5093,-195.6582 -77.6666,-316.5 -77.6666,-316.5 0,0 155.2436,-74.6648 84.0334,-186.56663 C 1934.8897,803.56486 1794.5111,882.9271 1776.2,893.1 1754.3536,856.40929 1682.5584,798.53572 1584.8333,760.66667 Z"
       id="path3009"
       inkscape:connector-curvature="0" />
    <path
       style="fill:#ffd42a;fill-opacity:1;stroke:none;stroke-width:1.06666672"
       d="m 1798.5671,919.53514 c 0,0 73.245,87.48686 93.5907,140.38586 79.3485,-44.7607 113.9364,-73.24479 73.2449,-132.24755 -40.6917,-59.00277 -122.0748,-36.62241 -166.8356,-8.13831 z"
       id="path5943"
       inkscape:connector-curvature="0" />
    <path
       style="fill:#ffe680;fill-opacity:1;stroke:none;stroke-width:1.06666672px;stroke-linecap:butt;stroke-linejoin:miter;stroke-opacity:1"
       d="m 1708.4,1153.6333 c -81.4396,14.5221 -127.6729,55.8194 -84.8667,152.1333 43.7311,98.3952 139.3883,273.3036 -92.9333,344.3667 -232.3215,71.0631 -442.8042,32.796 -524.8,-46.4666 -71.69685,-69.307 -168.43878,-69.6537 -177,-2.8667 8.34115,12.6028 18.30654,25.0524 29.9,37.2 1.65621,1.7354 3.34453,3.4772 5.06667,5.2 17.22132,17.2276 37.74811,33.7909 61.5,49.3001 2.37519,1.5508 4.79346,3.1041 7.23333,4.6332 2.28883,1.4345 4.58767,2.8521 6.93333,4.2667 0.1548,0.094 0.31163,0.1734 0.46667,0.2667 2.50445,1.5065 5.03108,3.0168 7.6,4.4999 0.24767,0.1431 0.48507,0.2907 0.73333,0.4334 2.33095,1.3405 4.71633,2.6461 7.1,3.9666 2.14817,1.1902 4.30908,2.3599 6.5,3.5335 0.85426,0.4574 1.70591,0.9116 2.56667,1.3666 1.7939,0.9482 3.61125,1.8965 5.43333,2.8332 1.08213,0.5565 2.17461,1.1145 3.26667,1.6668 1.87123,0.9464 3.7663,1.8991 5.66667,2.8333 1.01684,0.4998 2.04148,1.0036 3.06666,1.4999 2.12225,1.0276 4.24208,2.0548 6.4,3.0667 0.3053,0.1433 0.62732,0.2572 0.93334,0.4 5.56046,2.5961 11.20443,5.1439 17.00003,7.6334 1.6812,0.722 3.399,1.4206 5.1,2.1333 1.7378,0.7284 3.4749,1.4815 5.2333,2.2 2.0555,0.8397 4.1497,1.6741 6.2333,2.5001 0.7674,0.3042 1.5289,0.5975 2.3,0.8999 2.8833,1.1306 5.7969,2.2628 8.7334,3.3668 0.2569,0.096 0.5093,0.2035 0.7666,0.2999 2.6789,1.0034 5.3771,1.9859 8.1,2.9666 1.2597,0.4538 2.5309,0.8846 3.8,1.3333 2.4469,0.8653 4.8848,1.72 7.3667,2.5668 3.3337,1.1372 6.7033,2.2635 10.1,3.3667 6.4462,2.0933 13.0274,4.1342 19.7,6.0999 0.4594,0.1354 0.9061,0.2986 1.3666,0.4334 2.9611,0.8663 5.9614,1.6928 8.9667,2.5334 0.5908,0.1651 1.1742,0.3357 1.7668,0.4999 2.5508,0.707 5.1174,1.4119 7.6999,2.0999 1.6612,0.4427 3.3257,0.8654 5,1.3001 2.766,0.718 5.5317,1.4372 8.3333,2.1333 0.2644,0.066 0.5354,0.1014 0.8,0.1666 6.3367,1.5678 12.7819,3.0809 19.3,4.5334 0.2792,0.062 0.5538,0.138 0.8334,0.2001 1.4732,0.3266 2.9508,0.646 4.4334,0.9666 2.9746,0.6436 5.9547,1.2809 8.9666,1.8999 0.1224,0.026 0.2441,0.042 0.3667,0.067 3.8966,0.7993 7.8413,1.5757 11.7999,2.3333 3.6164,0.6921 7.2654,1.3767 10.9333,2.0334 0.9532,0.1706 1.9101,0.3317 2.8668,0.4999 3.2008,0.5627 6.4268,1.1315 9.6665,1.6668 0.4429,0.072 0.89,0.1272 1.3334,0.1999 2.9306,0.4801 5.9044,0.976 8.8668,1.4334 0.9344,0.1443 1.8622,0.2913 2.8,0.4332 0.1102,0.017 0.2229,0.017 0.3332,0.033 1.4051,0.2123 2.8212,0.4262 4.2334,0.6333 2.4023,0.3523 4.8105,0.6962 7.2332,1.0334 0.2908,0.04 0.5757,0.093 0.8668,0.1333 4.1507,0.5742 8.3561,1.1038 12.5666,1.6333 2.9072,0.3656 5.8311,0.7227 8.7668,1.0667 2.414,0.2828 4.8331,0.5653 7.2665,0.8333 2.5859,0.2849 5.1924,0.5653 7.8001,0.8334 0.7133,0.074 1.4183,0.1612 2.1334,0.2333 0.3772,0.038 0.7554,0.062 1.1332,0.1003 0.7645,0.077 1.5338,0.1586 2.3,0.2334 1.7874,0.1744 3.5692,0.3335 5.3668,0.5 1.4836,0.1374 2.9427,0.268 4.4332,0.4 4.4505,0.394 8.9552,0.7551 13.4667,1.1 4.4347,0.3389 8.9066,0.6759 13.4,0.9666 0.078,0 0.1555,0 0.2333,0 4.1639,0.2686 8.3524,0.5403 12.5667,0.7667 0.4134,0.022 0.8194,0.045 1.2334,0.066 3.9795,0.2095 7.9757,0.3619 12,0.5334 1.1768,0.05 2.3525,0.1197 3.5332,0.1667 0.912,0.036 1.8192,0.066 2.7335,0.1002 3.2849,0.1231 6.5854,0.2359 9.8999,0.3334 2.2007,0.065 4.3863,0.1134 6.6,0.1666 5.5524,0.134 11.1329,0.2386 16.7666,0.3 0.5119,0.011 1.0209,0 1.5335,0 2.3066,0.022 4.613,0.057 6.9333,0.066 3.903,0.017 7.8252,0.018 11.7666,0 0.8207,0 1.6443,-0.028 2.4667,-0.033 0.9623,-0.011 1.9353,0.011 2.8999,0 2.8739,-0.024 5.7394,-0.056 8.6334,-0.1003 2.165,-0.033 4.357,-0.09 6.5333,-0.1333 0.7326,-0.015 1.4662,-0.017 2.2,-0.033 2.4045,-0.052 4.8152,-0.1024 7.2334,-0.1667 0.5075,-0.014 1.0252,-0.019 1.5332,-0.033 4.5499,-0.1268 9.1352,-0.2934 13.7334,-0.4666 5.1151,-0.1927 10.2585,-0.4157 15.4334,-0.6667 2.1669,-0.1056 4.3559,-0.2179 6.5333,-0.3334 3.0146,-0.1599 6.032,-0.3201 9.0667,-0.5 388.4392,-23.0186 535.1573,-184.1416 546.6666,-379.8 0.1794,-3.0501 0.3354,-6.0864 0.4667,-9.0999 0.052,-1.2037 0.089,-2.4022 0.1333,-3.6 0.061,-1.6217 0.1195,-3.2559 0.1668,-4.8668 0.05,-1.7143 0.098,-3.3978 0.1333,-5.0999 0.024,-1.1702 0.049,-2.3357 0.066,-3.5 0,-0.2789 0,-0.5548 0,-0.8334 0.034,-2.5777 0.066,-5.1511 0.067,-7.6999 0,-0.3694 6e-4,-0.7314 0,-1.1001 0,-0.8165 -0.029,-1.6197 -0.033,-2.4333 -0.013,-2.084 -0.032,-4.1691 -0.066,-6.2333 -0.048,-2.8701 -0.1109,-5.7351 -0.2,-8.5667 -0.089,-2.8316 -0.2045,-5.6405 -0.3333,-8.4333 -0.1289,-2.7929 -0.2663,-5.5464 -0.4333,-8.3 -0.1671,-2.7537 -0.3628,-5.4858 -0.5667,-8.2001 -0.204,-2.7141 -0.4273,-5.4257 -0.6667,-8.0999 -0.2393,-2.6743 -0.4933,-5.3326 -0.7666,-7.9666 -0.2734,-2.6342 -0.5608,-5.2399 -0.8668,-7.8334 -0.3058,-2.5935 -0.6297,-5.1474 -0.9666,-7.7001 -0.1876,-1.4213 -0.3698,-2.8246 -0.5666,-4.2333 -0.041,-0.291 -0.093,-0.5761 -0.1333,-0.8666 -0.2444,-1.7292 -0.4755,-3.457 -0.7335,-5.1667 -0.064,-0.4218 -0.1354,-0.846 -0.1999,-1.2666 -0.1837,-1.1998 -0.3764,-2.3766 -0.5667,-3.5667 -0.1956,-1.2239 -0.3977,-2.4198 -0.6,-3.6333 -6.1056,-4.1968 -12.5069,-8.4196 -19.2333,-12.7001 -87.0095,-57.3472 -176.7263,-97.3527 -265.4333,-123.9 z"
       id="path3782"
       inkscape:connector-curvature="0" />
    <path
       style="fill:#c87137;fill-opacity:1;stroke:none;stroke-width:1.06666672"
       d="m 858.59203,1302.0358 c 0,0 443.88707,-428.94688 1068.15357,-54.9336 -177.0083,-73.2448 -343.8437,-150.5587 -585.9585,-134.2821 -242.1148,16.2766 -482.19507,189.2157 -482.19507,189.2157 z"
       id="path5937"
       inkscape:connector-curvature="0"
       sodipodi:nodetypes="ccsc" />
    <path
       style="fill:#000000;stroke:none;stroke-width:1.06666672"
       d="m 1218.1622,1136.7412 c 0,0 -84.2603,28.3818 -11.0155,91.4538 68.1511,58.6857 187.9815,105.9004 301.9179,-8.0361 113.9364,-113.9363 -54.9336,-114.2854 -113.9364,-114.2854 -74.828,0 -136.2743,14.5911 -176.966,30.8677 z"
       id="path5917"
       inkscape:connector-curvature="0"
       sodipodi:nodetypes="csssc" />
    <path
       style="fill:#ffffff;stroke:#000000;stroke-width:1.06666672px;stroke-linecap:butt;stroke-linejoin:miter;stroke-opacity:1"
       d="m 1252.2829,1227.7738 c -4.0691,-4.0693 -66.1238,-30.5188 -46.7952,-61.0374 19.3284,-30.5187 124.1092,-49.8472 173.9564,-46.7953 -75.2794,17.2939 -151.5762,28.4841 -158.6971,56.9682 -2.0346,12.2075 4.0691,28.4841 31.5359,50.8645 z"
       id="path5947"
       inkscape:connector-curvature="0" />
    <path
       style="fill:#ffeeaa;fill-opacity:1;stroke:none;stroke-width:1.06666672px;stroke-linecap:butt;stroke-linejoin:miter;stroke-opacity:1"
       d="m 959.35141,1024.2327 c 0,0 174.92439,-281.51906 450.97709,-276.05267 -103.8613,24.59875 -245.9875,62.86349 -450.97709,276.05267 z"
       id="path3007"
       inkscape:connector-curvature="0" />
    <path
       style="fill:#fedb50;fill-opacity:1;stroke:none;stroke-width:1.06666672px;stroke-linecap:butt;stroke-linejoin:miter;stroke-opacity:1"
       d="m 1940.3333,1951.7666 c -51.7489,51.6483 -128.1384,110.3061 -236.9667,157.3001 -66.1783,-48.9146 -123.6999,-109.3334 -123.6999,-109.3334 0,0 -151.106,86.9947 -236.8334,126.2 5.6658,13.5676 14.0352,28.5004 26.4,43.4 16.5719,-18.3569 40.6901,-30.535 75.3333,-33.1333 112.0292,-8.4022 169.8749,42.0233 199.0334,148.5667 50.1062,16.6736 83.6361,42.9674 89.2333,111.5332 2.954,36.1863 3.49,66.3264 2.7334,91.1335 27.3609,-1.8991 52.503,-12.0569 53.4333,-27.7001 12.2075,-52.899 9.5666,-140.4 9.5666,-140.4 0,0 47.7013,5.5013 104.1333,-22.2 8.8366,57.4407 24.6667,67 24.6667,67 0,0 58.6759,19.205 85.7001,-21.7333 10.444,-121.8475 15.2715,-249.3227 -72.7334,-390.6334 z"
       id="path3830"
       inkscape:connector-curvature="0" />
    <path
       style="fill:#7d4623;fill-opacity:1;stroke:none;stroke-width:1.06666672px;stroke-linecap:butt;stroke-linejoin:miter;stroke-opacity:1"
       d="m 2320.4667,1927.5667 c -46.4644,23.2321 -54.6342,65.5681 -68.3001,91.5332 -8.1996,-19.1321 12.2999,-53.2673 9.5667,-64.1998 -34.165,27.3317 -19.1338,64.2002 -30.0666,71.0332 -73.7963,84.729 -181.7686,9.5657 -218.6667,-12.3 -15.511,-9.1917 -30.5225,-9.6778 -42.7333,-7.1666 2.4133,5.0988 4.7051,10.1689 6.9,15.2334 17.8948,-5.0867 42.5857,-2.7327 75.1,21.9332 41.7211,31.6506 120.8534,48.9306 178.4,-4.3 11.5093,35.9666 56.1187,28.7693 69.0666,10.0667 11.3668,-16.4187 6.4839,-53.1713 19.0667,-86.3333 -1.7526,2.0736 -3.4964,4.3615 -5.1667,6.8666 -13.6657,20.4989 -27.3003,77.8652 -32.7666,51.9001 -5.4665,-25.9656 19.1011,-57.3687 39.6,-94.2667 z"
       id="path3840"
       inkscape:connector-curvature="0" />
  </g>
</svg>
